<mxfile host="app.diagrams.net" modified="2022-07-16T13:05:46.496Z" agent="5.0 (Windows NT 10.0; Win64; x64) AppleWebKit/537.36 (KHTML, like Gecko) Chrome/103.0.0.0 Safari/537.36" etag="n6AyVhlOJN-12AW9OPqB" version="17.5.0" type="github">
  <diagram id="JKwbAgF2-WHobCODbPCV" name="Page-1">
    <mxGraphModel dx="1422" dy="762" grid="1" gridSize="10" guides="1" tooltips="1" connect="1" arrows="1" fold="1" page="1" pageScale="1" pageWidth="827" pageHeight="1169" math="0" shadow="0">
      <root>
        <mxCell id="0" />
        <mxCell id="1" parent="0" />
        <mxCell id="AgP5Llwov3xEVTXLwa2V-1" value="Session" style="swimlane;fontStyle=0;childLayout=stackLayout;horizontal=1;startSize=30;horizontalStack=0;resizeParent=1;resizeParentMax=0;resizeLast=0;collapsible=1;marginBottom=0;" vertex="1" parent="1">
          <mxGeometry x="305" y="520" width="140" height="120" as="geometry" />
        </mxCell>
        <mxCell id="AgP5Llwov3xEVTXLwa2V-2" value="Users" style="text;strokeColor=none;fillColor=none;align=left;verticalAlign=middle;spacingLeft=4;spacingRight=4;overflow=hidden;points=[[0,0.5],[1,0.5]];portConstraint=eastwest;rotatable=0;" vertex="1" parent="AgP5Llwov3xEVTXLwa2V-1">
          <mxGeometry y="30" width="140" height="30" as="geometry" />
        </mxCell>
        <mxCell id="AgP5Llwov3xEVTXLwa2V-3" value="active user" style="text;strokeColor=none;fillColor=none;align=left;verticalAlign=middle;spacingLeft=4;spacingRight=4;overflow=hidden;points=[[0,0.5],[1,0.5]];portConstraint=eastwest;rotatable=0;" vertex="1" parent="AgP5Llwov3xEVTXLwa2V-1">
          <mxGeometry y="60" width="140" height="30" as="geometry" />
        </mxCell>
        <mxCell id="AgP5Llwov3xEVTXLwa2V-4" value="bay" style="text;strokeColor=none;fillColor=none;align=left;verticalAlign=middle;spacingLeft=4;spacingRight=4;overflow=hidden;points=[[0,0.5],[1,0.5]];portConstraint=eastwest;rotatable=0;" vertex="1" parent="AgP5Llwov3xEVTXLwa2V-1">
          <mxGeometry y="90" width="140" height="30" as="geometry" />
        </mxCell>
        <mxCell id="AgP5Llwov3xEVTXLwa2V-5" value="" style="group" vertex="1" connectable="0" parent="1">
          <mxGeometry x="110" y="30" width="230" height="150" as="geometry" />
        </mxCell>
        <mxCell id="AgP5Llwov3xEVTXLwa2V-6" value="pit&lt;br&gt;reader 1" style="rounded=0;whiteSpace=wrap;html=1;" vertex="1" parent="AgP5Llwov3xEVTXLwa2V-5">
          <mxGeometry width="229.99999999999997" height="150" as="geometry" />
        </mxCell>
        <mxCell id="AgP5Llwov3xEVTXLwa2V-7" value="antenna 3" style="rounded=0;whiteSpace=wrap;html=1;" vertex="1" parent="AgP5Llwov3xEVTXLwa2V-5">
          <mxGeometry x="25.299999999999997" y="10.714285714285715" width="64.4" height="42.85714285714286" as="geometry" />
        </mxCell>
        <mxCell id="AgP5Llwov3xEVTXLwa2V-8" value="antenna 5" style="rounded=0;whiteSpace=wrap;html=1;" vertex="1" parent="AgP5Llwov3xEVTXLwa2V-5">
          <mxGeometry x="135.70000000000002" y="10.714285714285715" width="64.4" height="42.85714285714286" as="geometry" />
        </mxCell>
        <mxCell id="AgP5Llwov3xEVTXLwa2V-9" value="antenna 6" style="rounded=0;whiteSpace=wrap;html=1;" vertex="1" parent="AgP5Llwov3xEVTXLwa2V-5">
          <mxGeometry x="135.70000000000002" y="85.71428571428572" width="64.4" height="42.85714285714286" as="geometry" />
        </mxCell>
        <mxCell id="AgP5Llwov3xEVTXLwa2V-10" value="antenna 4" style="rounded=0;whiteSpace=wrap;html=1;" vertex="1" parent="AgP5Llwov3xEVTXLwa2V-5">
          <mxGeometry x="25.299999999999997" y="85.71428571428572" width="64.4" height="42.85714285714286" as="geometry" />
        </mxCell>
        <mxCell id="AgP5Llwov3xEVTXLwa2V-11" value="" style="group;spacingTop=2;" vertex="1" connectable="0" parent="1">
          <mxGeometry x="300" y="290" width="200" height="140" as="geometry" />
        </mxCell>
        <mxCell id="AgP5Llwov3xEVTXLwa2V-12" value="bay&lt;br&gt;Reader" style="rounded=0;whiteSpace=wrap;html=1;" vertex="1" parent="AgP5Llwov3xEVTXLwa2V-11">
          <mxGeometry width="200" height="140" as="geometry" />
        </mxCell>
        <mxCell id="AgP5Llwov3xEVTXLwa2V-13" value="antenna 1" style="rounded=0;whiteSpace=wrap;html=1;" vertex="1" parent="AgP5Llwov3xEVTXLwa2V-11">
          <mxGeometry x="24" y="10" width="56" height="40" as="geometry" />
        </mxCell>
        <mxCell id="AgP5Llwov3xEVTXLwa2V-14" value="antenna 2" style="rounded=0;whiteSpace=wrap;html=1;" vertex="1" parent="AgP5Llwov3xEVTXLwa2V-11">
          <mxGeometry x="120" y="10" width="56" height="40" as="geometry" />
        </mxCell>
        <mxCell id="AgP5Llwov3xEVTXLwa2V-15" value="ball&lt;br&gt;epc 1" style="ellipse;whiteSpace=wrap;html=1;aspect=fixed;fontSize=8;" vertex="1" parent="AgP5Llwov3xEVTXLwa2V-11">
          <mxGeometry x="99" width="30" height="30" as="geometry" />
        </mxCell>
        <mxCell id="AgP5Llwov3xEVTXLwa2V-16" value="" style="group" vertex="1" connectable="0" parent="1">
          <mxGeometry x="460" y="40" width="230" height="150" as="geometry" />
        </mxCell>
        <mxCell id="AgP5Llwov3xEVTXLwa2V-17" value="pit&lt;br&gt;reader 2" style="rounded=0;whiteSpace=wrap;html=1;" vertex="1" parent="AgP5Llwov3xEVTXLwa2V-16">
          <mxGeometry width="229.99999999999997" height="150" as="geometry" />
        </mxCell>
        <mxCell id="AgP5Llwov3xEVTXLwa2V-18" value="antenna 7" style="rounded=0;whiteSpace=wrap;html=1;" vertex="1" parent="AgP5Llwov3xEVTXLwa2V-16">
          <mxGeometry x="25.299999999999997" y="10.714285714285715" width="64.4" height="42.85714285714286" as="geometry" />
        </mxCell>
        <mxCell id="AgP5Llwov3xEVTXLwa2V-19" value="antenna 8" style="rounded=0;whiteSpace=wrap;html=1;" vertex="1" parent="AgP5Llwov3xEVTXLwa2V-16">
          <mxGeometry x="135.70000000000002" y="10.714285714285715" width="64.4" height="42.85714285714286" as="geometry" />
        </mxCell>
        <mxCell id="AgP5Llwov3xEVTXLwa2V-20" value="antenna 10" style="rounded=0;whiteSpace=wrap;html=1;" vertex="1" parent="AgP5Llwov3xEVTXLwa2V-16">
          <mxGeometry x="135.70000000000002" y="85.71428571428572" width="64.4" height="42.85714285714286" as="geometry" />
        </mxCell>
        <mxCell id="AgP5Llwov3xEVTXLwa2V-21" value="antenna 9" style="rounded=0;whiteSpace=wrap;html=1;" vertex="1" parent="AgP5Llwov3xEVTXLwa2V-16">
          <mxGeometry x="25.299999999999997" y="85.71428571428572" width="64.4" height="42.85714285714286" as="geometry" />
        </mxCell>
        <mxCell id="AgP5Llwov3xEVTXLwa2V-22" value="ball&lt;br&gt;epc 1" style="ellipse;whiteSpace=wrap;html=1;aspect=fixed;fontSize=8;" vertex="1" parent="AgP5Llwov3xEVTXLwa2V-16">
          <mxGeometry x="130" y="110" width="30" height="30" as="geometry" />
        </mxCell>
        <mxCell id="AgP5Llwov3xEVTXLwa2V-23" value="" style="curved=1;endArrow=classic;html=1;rounded=0;fontSize=8;exitX=0.5;exitY=0;exitDx=0;exitDy=0;entryX=0;entryY=0.5;entryDx=0;entryDy=0;" edge="1" parent="1" source="AgP5Llwov3xEVTXLwa2V-15" target="AgP5Llwov3xEVTXLwa2V-22">
          <mxGeometry width="50" height="50" relative="1" as="geometry">
            <mxPoint x="414" y="280" as="sourcePoint" />
            <mxPoint x="464" y="230" as="targetPoint" />
            <Array as="points">
              <mxPoint x="464" y="280" />
              <mxPoint x="500" y="190" />
            </Array>
          </mxGeometry>
        </mxCell>
      </root>
    </mxGraphModel>
  </diagram>
</mxfile>
